<svg width="24" height="24" viewBox="0 0 24 24" fill="none" xmlns="http://www.w3.org/2000/svg">
<path d="M14 12C14 13.1867 13.6481 14.3467 12.9888 15.3334C12.3295 16.3201 11.3925 17.0892 10.2961 17.5433C9.19975 17.9974 7.99335 18.1162 6.82946 17.8847C5.66558 17.6532 4.59648 17.0818 3.75736 16.2426C2.91825 15.4035 2.3468 14.3344 2.11529 13.1705C1.88378 12.0067 2.0026 10.8003 2.45673 9.7039C2.91085 8.60754 3.67989 7.67047 4.66658 7.01118C5.65328 6.35189 6.81331 6 8 6" stroke="#ED008C" stroke-width="1.5" stroke-linecap="round"/>
<path opacity="0.5" d="M10 12C10 10.8133 10.3519 9.65328 11.0112 8.66658C11.6705 7.67989 12.6075 6.91085 13.7039 6.45673C14.8003 6.0026 16.0067 5.88378 17.1705 6.11529C18.3344 6.3468 19.4035 6.91825 20.2426 7.75736C21.0818 8.59648 21.6532 9.66558 21.8847 10.8295C22.1162 11.9933 21.9974 13.1997 21.5433 14.2961C21.0892 15.3925 20.3201 16.3295 19.3334 16.9888C18.3467 17.6481 17.1867 18 16 18" stroke="#0D0D0D" stroke-width="1.5" stroke-linecap="round"/>
</svg>
