<svg width="24" height="24" viewBox="0 0 24 24" fill="none" xmlns="http://www.w3.org/2000/svg">
<path d="M18.6109 7.33325H5.38867" stroke="#B80020" stroke-width="1.5" stroke-linecap="round"/>
<path d="M7.72168 7.33333H7.80724C8.12025 7.32534 8.42356 7.22306 8.67751 7.03989C8.93145 6.85671 9.12421 6.60117 9.23057 6.30667L9.25701 6.22656L9.33246 6.00022C9.39701 5.80656 9.42968 5.71011 9.47246 5.62767C9.55662 5.46619 9.67741 5.32666 9.82516 5.22023C9.97291 5.11381 10.1435 5.04345 10.3233 5.01478C10.4143 5 10.5162 5 10.72 5H13.2789C13.4827 5 13.5846 5 13.6756 5.01478C13.8554 5.04345 14.026 5.11381 14.1738 5.22023C14.3215 5.32666 14.4423 5.46619 14.5265 5.62767C14.5692 5.71011 14.6019 5.80656 14.6665 6.00022L14.7419 6.22656C14.8405 6.55421 15.0443 6.84023 15.3219 7.04031C15.5994 7.2404 15.9352 7.34339 16.2772 7.33333" stroke="#B80020" stroke-width="1.5"/>
<path d="M16.9577 14.6443C16.82 16.7085 16.7508 17.7406 16.078 18.3698C15.4052 18.9998 14.3708 18.9998 12.3011 18.9998H11.6991C9.63021 18.9998 8.59577 18.9998 7.92221 18.3698C7.24944 17.7406 7.18099 16.7085 7.04332 14.6443L6.68555 9.27759M17.3147 9.27759L17.1591 11.6109" stroke="#B80020" stroke-width="1.5" stroke-linecap="round"/>
</svg>
