<svg width="44" height="44" viewBox="0 0 44 44" fill="none" xmlns="http://www.w3.org/2000/svg">
<path d="M33.2037 7.33337H8.96296C7.05042 7.33337 5.5 8.8838 5.5 10.7963V35.0371C5.5 36.9496 7.05042 38.5 8.96296 38.5H33.2037C35.1162 38.5 36.6667 36.9496 36.6667 35.0371V10.7963C36.6667 8.8838 35.1162 7.33337 33.2037 7.33337Z" stroke="white" stroke-width="1.5" stroke-linecap="round" stroke-linejoin="round"/>
<path d="M15.5834 20.1666C17.1022 20.1666 18.3334 18.9354 18.3334 17.4166C18.3334 15.8978 17.1022 14.6666 15.5834 14.6666C14.0646 14.6666 12.8334 15.8978 12.8334 17.4166C12.8334 18.9354 14.0646 20.1666 15.5834 20.1666Z" stroke="white" stroke-width="1.5" stroke-linecap="round" stroke-linejoin="round"/>
<path d="M36.6666 28.5L28.0729 20.1666L9.16663 38.5" stroke="white" stroke-width="1.5" stroke-linecap="round" stroke-linejoin="round"/>
</svg>
