<svg width="24" height="24" viewBox="0 0 24 24" fill="none" xmlns="http://www.w3.org/2000/svg">
<path d="M5.5 16.5C5.358 16.5 5.23933 16.452 5.144 16.356C5.048 16.26 5 16.1413 5 16C5 15.8587 5.048 15.74 5.144 15.644C5.24 15.5487 5.35867 15.501 5.5 15.501H18.5C18.642 15.501 18.7607 15.549 18.856 15.645C18.952 15.741 19 15.86 19 16.002C19 16.144 18.952 16.2627 18.856 16.358C18.7607 16.4533 18.642 16.501 18.5 16.501L5.5 16.5ZM5.5 12.5C5.358 12.5 5.23933 12.452 5.144 12.356C5.048 12.26 5 12.1413 5 12C5 11.8587 5.048 11.74 5.144 11.644C5.24 11.548 5.35867 11.5 5.5 11.5H18.5C18.642 11.5 18.7607 11.548 18.856 11.644C18.952 11.74 19 11.8587 19 12C19 12.1413 18.952 12.26 18.856 12.356C18.7607 12.4513 18.642 12.499 18.5 12.499L5.5 12.5Z" fill="#ED008C"/>
<path d="M5.5 12.5C5.358 12.5 5.23933 12.452 5.144 12.356C5.048 12.26 5 12.1413 5 12C5 11.8587 5.048 11.74 5.144 11.644C5.24 11.5487 5.35867 11.501 5.5 11.501H18.5C18.642 11.501 18.7607 11.549 18.856 11.645C18.952 11.741 19 11.86 19 12.002C19 12.144 18.952 12.2627 18.856 12.358C18.7607 12.4533 18.642 12.501 18.5 12.501L5.5 12.5ZM5.5 8.5C5.358 8.5 5.23933 8.452 5.144 8.356C5.048 8.26 5 8.14133 5 8C5 7.85867 5.048 7.74 5.144 7.644C5.24 7.548 5.35867 7.5 5.5 7.5H18.5C18.642 7.5 18.7607 7.548 18.856 7.644C18.952 7.74 19 7.85867 19 8C19 8.14133 18.952 8.26 18.856 8.356C18.7607 8.45133 18.642 8.499 18.5 8.499L5.5 8.5Z" fill="#ED008C"/>
</svg>
