<svg width="4" height="16" viewBox="0 0 4 16" fill="none" xmlns="http://www.w3.org/2000/svg">
<path d="M2 16C1.45 16 0.979334 15.8043 0.588 15.413C0.196667 15.0217 0.000666667 14.5507 0 14C0 13.45 0.196 12.9793 0.588 12.588C0.98 12.1967 1.45067 12.0007 2 12C2.55 12 3.021 12.196 3.413 12.588C3.805 12.98 4.00067 13.4507 4 14C4 14.55 3.80433 15.021 3.413 15.413C3.02167 15.805 2.55067 16.0007 2 16ZM2 10C1.45 10 0.979334 9.80433 0.588 9.413C0.196667 9.02167 0.000666667 8.55067 0 8C0 7.45 0.196 6.97933 0.588 6.588C0.98 6.19667 1.45067 6.00067 2 6C2.55 6 3.021 6.196 3.413 6.588C3.805 6.98 4.00067 7.45067 4 8C4 8.55 3.80433 9.021 3.413 9.413C3.02167 9.805 2.55067 10.0007 2 10ZM2 4C1.45 4 0.979334 3.80433 0.588 3.413C0.196667 3.02167 0.000666667 2.55067 0 2C0 1.45 0.196 0.979333 0.588 0.588C0.98 0.196666 1.45067 0.000666667 2 0C2.55 0 3.021 0.196 3.413 0.588C3.805 0.98 4.00067 1.45067 4 2C4 2.55 3.80433 3.021 3.413 3.413C3.02167 3.805 2.55067 4.00067 2 4Z" fill="#ED008C"/>
</svg>
