<svg width="24" height="24" viewBox="0 0 24 24" fill="none" xmlns="http://www.w3.org/2000/svg">
<path d="M18.6109 7.33301H5.38867" stroke="#ED008C" stroke-width="1.5" stroke-linecap="round"/>
<path d="M7.72186 7.33333H7.80742C8.12043 7.32534 8.42375 7.22306 8.67769 7.03989C8.93164 6.85671 9.12439 6.60117 9.23075 6.30667L9.2572 6.22656L9.33264 6.00022C9.3972 5.80656 9.42986 5.71011 9.47264 5.62767C9.5568 5.46619 9.67759 5.32666 9.82534 5.22023C9.9731 5.11381 10.1437 5.04345 10.3235 5.01478C10.4145 5 10.5164 5 10.7202 5H13.2791C13.4829 5 13.5848 5 13.6758 5.01478C13.8556 5.04345 14.0262 5.11381 14.1739 5.22023C14.3217 5.32666 14.4425 5.46619 14.5266 5.62767C14.5694 5.71011 14.6021 5.80656 14.6666 6.00022L14.7421 6.22656C14.8407 6.55421 15.0445 6.84023 15.3221 7.04031C15.5996 7.2404 15.9354 7.34339 16.2774 7.33333" stroke="#ED008C" stroke-width="1.5"/>
<path d="M16.9575 14.644C16.8198 16.7082 16.7506 17.7403 16.0778 18.3696C15.405 18.9996 14.3706 18.9996 12.3009 18.9996H11.6989C9.63003 18.9996 8.59559 18.9996 7.92203 18.3696C7.24925 17.7403 7.18081 16.7082 7.04314 14.644L6.68536 9.27734M17.3145 9.27734L17.1589 11.6107" stroke="#ED008C" stroke-width="1.5" stroke-linecap="round"/>
</svg>
