<svg width="24" height="25" viewBox="0 0 24 25" fill="none" xmlns="http://www.w3.org/2000/svg">
<path fill-rule="evenodd" clip-rule="evenodd" d="M18.8292 18.0919L15.0243 14.2868C15.6873 13.3736 16.0834 12.2542 16.0834 11.0417C16.0834 7.98589 13.5975 5.5 10.5417 5.5C7.48589 5.5 5 7.98589 5 11.0417C5 14.0975 7.48589 16.5834 10.5417 16.5834C11.7542 16.5834 12.8736 16.1873 13.7868 15.5243L17.5919 19.3292C17.8197 19.5569 18.1889 19.5569 18.4167 19.3292L18.8292 18.917C19.0569 18.6889 19.0569 18.3197 18.8292 18.0919ZM7 11C7 9.07015 8.57015 7.5 10.5 7.5C12.4298 7.5 14 9.07015 14 11C14 12.9298 12.4298 14.5 10.5 14.5C8.57015 14.5 7 12.9298 7 11Z" fill="#ED008C"/>
</svg>
