<svg width="28" height="28" viewBox="0 0 28 28" fill="none" xmlns="http://www.w3.org/2000/svg">
<rect width="28" height="28" rx="14" fill="white" fill-opacity="0.24"/>
<path fill-rule="evenodd" clip-rule="evenodd" d="M22.3333 14C22.3333 18.6024 18.6024 22.3334 14 22.3334C9.39762 22.3334 5.66666 18.6024 5.66666 14C5.66666 9.39765 9.39762 5.66669 14 5.66669C18.6024 5.66669 22.3333 9.39765 22.3333 14ZM17.3586 11.4747C17.6027 11.7188 17.6027 12.1146 17.3586 12.3586L13.1919 16.5253C12.9479 16.7694 12.5521 16.7694 12.308 16.5253L10.6414 14.8586C10.3973 14.6146 10.3973 14.2188 10.6414 13.9747C10.8855 13.7307 11.2812 13.7307 11.5253 13.9747L12.75 15.1995L14.6124 13.3371L16.4747 11.4747C16.7188 11.2307 17.1145 11.2307 17.3586 11.4747Z" fill="white"/>
</svg>
