<svg width="24" height="24" viewBox="0 0 24 24" fill="none" xmlns="http://www.w3.org/2000/svg">
<path d="M14 2C14 2 16.2 2.2 19 5C21.8 7.8 22 10 22 10M14.207 5.536C14.207 5.536 15.197 5.818 16.682 7.303C18.167 8.788 18.45 9.778 18.45 9.778" stroke="#ED008C" stroke-width="1.5" stroke-linecap="round"/>
<path d="M10.0379 5.31598L10.6869 6.47898C11.2719 7.52898 11.0369 8.90498 10.1149 9.82798C10.1149 9.82798 8.9949 10.947 11.0249 12.976C13.0519 15.003 14.1719 13.886 14.1719 13.886C15.0949 12.963 16.4719 12.728 17.5209 13.313L18.6839 13.963C20.2689 14.847 20.4559 17.069 19.0629 18.463C18.2259 19.299 17.1999 19.951 16.0669 19.993C14.1589 20.066 10.9179 19.583 7.6669 16.333C4.4169 13.082 3.9339 9.84098 4.0069 7.93298C4.0499 6.79998 4.70091 5.77398 5.53691 4.93698C6.93091 3.54398 9.1529 3.73098 10.0369 5.31698L10.0379 5.31598Z" stroke="#ED008C" stroke-width="1.5" stroke-linecap="round"/>
</svg>
