<svg width="21" height="16" viewBox="0 0 21 16" fill="none" xmlns="http://www.w3.org/2000/svg">
<path d="M10.5 0.25C8.514 0.25 6.7875 1.1785 5.5545 2.54725C5.4525 2.5345 5.361 2.5 5.25 2.5C3.6 2.5 2.25 3.85 2.25 5.5C0.9525 6.29125 0 7.627 0 9.25C0 11.725 2.025 13.75 4.5 13.75H8.25V12.25H4.5C2.83575 12.25 1.5 10.9143 1.5 9.25C1.49986 8.66043 1.67314 8.08383 1.99827 7.59201C2.32339 7.10018 2.786 6.71486 3.3285 6.484L3.84375 6.274L3.77325 5.7115C3.76369 5.64121 3.75594 5.57069 3.75 5.5C3.74837 5.27273 3.79883 5.0481 3.8975 4.84336C3.99617 4.63861 4.14043 4.45919 4.31921 4.31886C4.49799 4.17853 4.70654 4.08102 4.92886 4.0338C5.15119 3.98659 5.38137 3.99093 5.60175 4.0465L6.0705 4.16425L6.35175 3.78925C6.84206 3.15567 7.47071 2.64256 8.18967 2.28913C8.90863 1.93569 9.69886 1.75129 10.5 1.75C12.9578 1.75 15.009 3.4405 15.5858 5.71075L15.7267 6.2965L16.359 6.274C16.5173 6.265 16.5525 6.25 16.5 6.25C18.1642 6.25 19.5 7.58575 19.5 9.25C19.5 10.9143 18.1642 12.25 16.5 12.25H12.75V13.75H16.5C18.975 13.75 21 11.725 21 9.25C21 6.883 19.134 4.987 16.8045 4.8205C15.888 2.1805 13.4445 0.25 10.5 0.25ZM10.5 6.25L7.5 9.25H9.75V15.25H11.25V9.25H13.5L10.5 6.25Z" fill="#ED008C"/>
</svg>
