<svg width="46" height="46" viewBox="0 0 46 46" fill="none" xmlns="http://www.w3.org/2000/svg">
<g clip-path="url(#clip0_139_7520)">
<path fill-rule="evenodd" clip-rule="evenodd" d="M18.3731 28.75C19.3897 28.7502 20.3646 29.1542 21.0833 29.8731L23 31.7898L24.9166 29.8731C25.6353 29.1542 26.6102 28.7502 27.6268 28.75H35.3395C36.6215 28.7501 37.8668 29.1787 38.8774 29.9678C39.888 30.7568 40.6058 31.8609 40.917 33.1046L42.1091 37.8695C42.1751 38.1152 42.1914 38.3717 42.1572 38.6238C42.123 38.876 42.0389 39.1188 41.9098 39.3381C41.7808 39.5574 41.6094 39.7489 41.4056 39.9012C41.2018 40.0536 40.9696 40.1639 40.7228 40.2256C40.4759 40.2873 40.2192 40.2992 39.9677 40.2607C39.7162 40.2222 39.4748 40.1339 39.2578 40.0012C39.0407 39.8684 38.8522 39.6937 38.7034 39.4873C38.5545 39.2809 38.4483 39.0469 38.3908 38.7991L37.2005 34.0361C37.0971 33.6213 36.8579 33.253 36.521 32.9897C36.1841 32.7265 35.7689 32.5834 35.3414 32.5833H27.6268L25.7101 34.5C24.9913 35.2186 24.0164 35.6223 23 35.6223C21.9835 35.6223 21.0086 35.2186 20.2898 34.5L18.3731 32.5833H10.6605C10.2329 32.5834 9.81769 32.7265 9.48081 32.9897C9.14394 33.253 8.90475 33.6213 8.80128 34.0361L7.60912 38.7991C7.55164 39.0469 7.44538 39.2809 7.29653 39.4873C7.14768 39.6937 6.95922 39.8684 6.74215 40.0012C6.52508 40.1339 6.28374 40.2222 6.03221 40.2607C5.78068 40.2992 5.52399 40.2873 5.27712 40.2256C5.03026 40.1639 4.79815 40.0536 4.59434 39.9012C4.39054 39.7489 4.21911 39.5574 4.09007 39.3381C3.96102 39.1188 3.87694 38.876 3.84272 38.6238C3.80851 38.3717 3.82485 38.1152 3.89078 37.8695L5.08103 33.1046C5.39216 31.8609 6.11004 30.7568 7.1206 29.9678C8.13117 29.1787 9.37644 28.7501 10.6585 28.75H18.3731ZM23 3.83331C24.5026 3.83331 26.1835 4.19748 27.5616 4.58273C30.749 5.47015 32.5833 8.45248 32.5833 11.4942V19.1724C32.5833 22.2161 30.749 25.1965 27.5616 26.0839C26.1835 26.4672 24.5026 26.8333 23 26.8333C21.4973 26.8333 19.8164 26.4691 18.4383 26.0839C15.2509 25.1965 13.4166 22.2161 13.4166 19.1724V11.4942C13.4166 8.45248 15.2509 5.47015 18.4383 4.58273C19.8164 4.1994 21.4973 3.83331 23 3.83331ZM23 7.66665C22.0244 7.66665 20.744 7.91965 19.4675 8.27615C18.1872 8.63265 17.25 9.89956 17.25 11.4942V19.1724C17.25 20.7671 18.1872 22.034 19.4675 22.3924C20.744 22.747 22.0244 23 23 23C23.9755 23 25.2559 22.747 26.5324 22.3905C27.8127 22.034 28.75 20.7671 28.75 19.1724V11.4942C28.75 9.89956 27.8127 8.63265 26.5324 8.27423C25.2559 7.92156 23.9775 7.66665 23 7.66665Z" fill="#ED008C"/>
</g>
<defs>
<clipPath id="clip0_139_7520">
<rect width="46" height="46" fill="white"/>
</clipPath>
</defs>
</svg>
