<svg width="24" height="24" viewBox="0 0 24 24" fill="none" xmlns="http://www.w3.org/2000/svg">
<path d="M7.2 7.92308H10.4M7.2 12.5H16.8M7.2 15.1154H16.8M7.2 17.7308H10.4M5.6 21H18.4C18.8243 21 19.2313 20.8622 19.5314 20.617C19.8314 20.3717 20 20.0391 20 19.6923V5.30769C20 4.96087 19.8314 4.62825 19.5314 4.38301C19.2313 4.13777 18.8243 4 18.4 4H5.6C5.17565 4 4.76869 4.13777 4.46863 4.38301C4.16857 4.62825 4 4.96087 4 5.30769V19.6923C4 20.0391 4.16857 20.3717 4.46863 20.617C4.76869 20.8622 5.17565 21 5.6 21Z" stroke="#ED008C" stroke-width="1.5" stroke-linecap="round" stroke-linejoin="round"/>
<path d="M17.3333 8.125C17.5542 8.125 17.7333 7.95711 17.7333 7.75C17.7333 7.54289 17.5542 7.375 17.3333 7.375C17.1124 7.375 16.9333 7.54289 16.9333 7.75C16.9333 7.95711 17.1124 8.125 17.3333 8.125Z" fill="#ED008C" stroke="#ED008C" stroke-width="0.75"/>
</svg>
