<svg width="24" height="24" viewBox="0 0 24 24" fill="none" xmlns="http://www.w3.org/2000/svg">
<path d="M18.1111 4H4.88889C3.84568 4 3 4.84568 3 5.88889V19.1111C3 20.1543 3.84568 21 4.88889 21H18.1111C19.1543 21 20 20.1543 20 19.1111V5.88889C20 4.84568 19.1543 4 18.1111 4Z" stroke="#FCE5F2" stroke-width="1.5" stroke-linecap="round" stroke-linejoin="round"/>
<path d="M8.5 11C9.32843 11 10 10.3284 10 9.5C10 8.67157 9.32843 8 8.5 8C7.67157 8 7 8.67157 7 9.5C7 10.3284 7.67157 11 8.5 11Z" stroke="#FCE5F2" stroke-width="1.5" stroke-linecap="round" stroke-linejoin="round"/>
<path d="M20 15.5455L15.3125 11L5 21" stroke="#FCE5F2" stroke-width="1.5" stroke-linecap="round" stroke-linejoin="round"/>
</svg>
