<svg width="24" height="24" viewBox="0 0 24 24" fill="none" xmlns="http://www.w3.org/2000/svg">
<path d="M12 7.63636H13.5M12 10.5455H13.5M6 13.4545H13.5M6 16.3636H13.5M16.5 7.63636H19.875C20.496 7.63636 21 8.12509 21 8.72727V17.8182C21 18.3968 20.7629 18.9518 20.341 19.361C19.919 19.7701 19.3467 20 18.75 20M16.5 7.63636V17.8182C16.5 18.3968 16.7371 18.9518 17.159 19.361C17.581 19.7701 18.1533 20 18.75 20M16.5 7.63636V5.09091C16.5 4.48873 15.996 4 15.375 4H4.125C3.504 4 3 4.48873 3 5.09091V17.8182C3 18.3968 3.23705 18.9518 3.65901 19.361C4.08097 19.7701 4.65326 20 5.25 20H18.75M6 7.63636H9V10.5455H6V7.63636Z" stroke="#FCE5F2" stroke-width="1.5" stroke-linecap="round" stroke-linejoin="round"/>
</svg>
