<svg width="24" height="24" viewBox="0 0 24 24" fill="none" xmlns="http://www.w3.org/2000/svg">
<path d="M22.2397 9.92078L22.2391 9.88227C22.2242 8.98108 22.1875 8.22134 22.1015 7.57769C21.9509 6.46099 21.645 5.63503 21.0053 4.99444C20.3648 4.35494 19.5389 4.04909 18.4224 3.89855L22.2397 9.92078ZM22.2397 9.92078L22.2462 9.95875M22.2397 9.92078L22.2462 9.95875M22.2462 9.95875C22.2506 9.98442 22.2511 10.0106 22.2476 10.0364L22.2426 10.0731M22.2462 9.95875L22.2426 10.0731M22.2426 10.0731L22.243 10.1102M22.2426 10.0731L22.243 10.1102M22.243 10.1102C22.25 10.6725 22.25 11.2812 22.25 11.944M22.243 10.1102L22.25 11.944M1.75742 10.0722L1.75695 10.1102C1.74999 10.6725 1.74999 11.2812 1.74999 11.944V12.056C1.74999 13.9071 1.75102 15.323 1.8985 16.4222L1.75742 10.0722ZM1.75742 10.0722L1.75213 10.0345M1.75742 10.0722L1.75213 10.0345M1.75213 10.0345C1.74849 10.0086 1.74883 9.98223 1.75315 9.9564L1.75925 9.91986M1.75213 10.0345L1.75925 9.91986M1.75925 9.91986L1.75991 9.88282M1.75925 9.91986L1.75991 9.88282M1.75991 9.88282C1.77581 8.98117 1.81246 8.22135 1.89853 7.57759M1.75991 9.88282L1.89853 7.57759M2.25456 10.25H2.75199H21.248H21.7454L21.748 10.7474C21.75 11.1366 21.75 11.5535 21.75 11.9987V12C21.75 13.8928 21.749 15.2865 21.6055 16.3555C21.6055 16.3555 21.6055 16.3555 21.6055 16.3555L21.11 16.289C20.975 17.295 20.721 17.875 20.298 18.298L2.25456 10.25ZM2.25456 10.25L2.25199 10.7474M2.25456 10.25L2.25199 10.7474M5.64448 19.6056C5.64448 19.6056 5.64447 19.6056 5.64446 19.6056L5.71099 19.11L5.64448 19.6056ZM5.64448 19.6056C4.58266 19.4631 3.87969 19.1828 3.34843 18.6516M5.64448 19.6056L3.34843 18.6516M2.25199 10.7474C2.24999 11.1367 2.24999 11.5538 2.24999 11.9992V12C2.24999 13.8928 2.25093 15.2875 2.39443 16.3565L2.39444 16.3566M2.25199 10.7474L2.39444 16.3566M2.39444 16.3566C2.53694 17.4174 2.81722 18.1203 3.34843 18.6516M2.39444 16.3566L3.34843 18.6516M21.7413 9.75H21.224H2.77599H2.25866L2.27628 9.23297C2.29654 8.63814 2.33131 8.11272 2.39444 7.64343L21.7413 9.75ZM21.7413 9.75L21.7237 9.23297M21.7413 9.75L21.7237 9.23297M21.7237 9.23297C21.7034 8.63828 21.6687 8.11284 21.6055 7.6445C21.4631 6.58267 21.1828 5.8797 20.6515 5.34845C20.1203 4.81723 19.4174 4.53695 18.3566 4.39445L18.3565 4.39445M21.7237 9.23297L18.3565 4.39445M18.3565 4.39445C17.2875 4.25094 15.8928 4.25 14 4.25H9.99998C8.10713 4.25 6.71349 4.25094 5.64448 4.39444M18.3565 4.39445L5.64448 4.39444M14.056 3.75H9.94398C8.09289 3.75 6.67696 3.75103 5.57779 3.89852L14.056 3.75ZM14.056 3.75C15.9071 3.75 17.324 3.75103 18.4222 3.89852L14.056 3.75ZM22.25 11.944V12.056M22.25 11.944V12.056M22.25 12.056C22.25 13.9072 22.2489 15.3241 22.1015 16.4222M22.25 12.056L22.1015 16.4222M22.1015 16.4222C21.9509 17.5389 21.645 18.3648 21.0054 19.0054M22.1015 16.4222L21.0054 19.0054M21.0054 19.0054C20.3648 19.6451 19.5389 19.9509 18.4222 20.1015C17.323 20.249 15.9071 20.25 14.056 20.25H9.94398C8.09282 20.25 6.67592 20.249 5.57779 20.1015C4.46116 19.9509 3.63524 19.6451 2.99465 19.0056C2.35501 18.365 2.04911 17.5391 1.89854 16.4225L21.0054 19.0054ZM1.89853 7.57759C2.04908 6.46101 2.35496 5.63511 2.99454 4.99455C3.63513 4.35495 4.46106 4.04907 5.57772 3.89853L1.89853 7.57759ZM5.64448 4.39444C4.58266 4.53693 3.87969 4.81719 3.34843 5.34845C2.81724 5.87964 2.53696 6.58253 2.39445 7.64334L5.64448 4.39444ZM5.74999 16C5.74999 15.9337 5.77632 15.8701 5.82321 15.8232C5.87009 15.7763 5.93368 15.75 5.99999 15.75H9.99998C10.0663 15.75 10.1299 15.7763 10.1768 15.8232C10.2236 15.8701 10.25 15.9337 10.25 16C10.25 16.0663 10.2236 16.1299 10.1768 16.1768C10.1299 16.2237 10.0663 16.25 9.99998 16.25H5.99999C5.93368 16.25 5.87009 16.2237 5.82321 16.1768C5.77632 16.1299 5.74999 16.0663 5.74999 16ZM12.25 16C12.25 15.9337 12.2763 15.8701 12.3232 15.8232C12.3701 15.7763 12.4337 15.75 12.5 15.75H14C14.0663 15.75 14.1299 15.7763 14.1768 15.8232C14.2236 15.8701 14.25 15.9337 14.25 16C14.25 16.0663 14.2236 16.1299 14.1768 16.1768C14.1299 16.2237 14.0663 16.25 14 16.25H12.5C12.4337 16.25 12.3701 16.2237 12.3232 16.1768C12.2763 16.1299 12.25 16.0663 12.25 16Z" fill="#FCE5F2" stroke="#FCE5F2"/>
</svg>
