<svg width="24" height="24" viewBox="0 0 24 24" fill="none" xmlns="http://www.w3.org/2000/svg">
<path d="M19.5505 10.1986H4.39263V17.3995C4.39263 20.0999 5.34 21 8.18211 21H15.7611C18.6032 21 19.5505 20.0999 19.5505 17.3995V10.1986ZM21 7.49823V8.39835C21 9.38848 20.4979 10.1986 19.1053 10.1986H4.89474C3.44526 10.1986 3 9.38848 3 8.39835V7.49823C3 6.5081 3.44526 5.69799 4.89474 5.69799H19.1053C20.4979 5.69799 21 6.5081 21 7.49823ZM11.6589 5.69799H6.42947C6.2737 5.53747 6.1896 5.32575 6.1949 5.10746C6.20021 4.88917 6.29449 4.68137 6.45789 4.52784L7.80316 3.24967C7.97341 3.08971 8.20319 3 8.44263 3C8.68207 3 8.91185 3.08971 9.08211 3.24967L11.6589 5.69799ZM17.5611 5.69799H12.3316L14.9084 3.24967C15.0787 3.08971 15.3085 3 15.5479 3C15.7873 3 16.0171 3.08971 16.1874 3.24967L17.5326 4.52784C17.8737 4.85188 17.8832 5.36495 17.5611 5.69799Z" stroke="#FCE5F2" stroke-width="1.5" stroke-miterlimit="10" stroke-linecap="round" stroke-linejoin="round"/>
<path d="M8.93994 11V16.14C8.93994 16.94 9.81994 17.41 10.4899 16.98L11.4299 16.36C11.5932 16.2525 11.7844 16.1952 11.9799 16.1952C12.1754 16.1952 12.3667 16.2525 12.5299 16.36L13.4199 16.96C13.5701 17.0601 13.7447 17.1176 13.9249 17.1263C14.1052 17.135 14.2845 17.0945 14.4436 17.0093C14.6027 16.9241 14.7357 16.7973 14.8284 16.6425C14.9211 16.4876 14.97 16.3105 14.9699 16.13V11H8.93994Z" stroke="#FCE5F2" stroke-width="1.5" stroke-miterlimit="10" stroke-linecap="round" stroke-linejoin="round"/>
</svg>
