<svg width="24" height="24" viewBox="0 0 24 24" fill="none" xmlns="http://www.w3.org/2000/svg">
<path d="M18.5505 9.19858H3.39263V16.3995C3.39263 19.0999 4.34 20 7.18211 20H14.7611C17.6032 20 18.5505 19.0999 18.5505 16.3995V9.19858ZM20 6.49823V7.39835C20 8.38848 19.4979 9.19858 18.1053 9.19858H3.89474C2.44526 9.19858 2 8.38848 2 7.39835V6.49823C2 5.5081 2.44526 4.69799 3.89474 4.69799H18.1053C19.4979 4.69799 20 5.5081 20 6.49823ZM10.6589 4.69799H5.42947C5.2737 4.53747 5.1896 4.32575 5.1949 4.10746C5.20021 3.88917 5.29449 3.68137 5.45789 3.52784L6.80316 2.24967C6.97341 2.08971 7.20319 2 7.44263 2C7.68207 2 7.91185 2.08971 8.08211 2.24967L10.6589 4.69799ZM16.5611 4.69799H11.3316L13.9084 2.24967C14.0787 2.08971 14.3085 2 14.5479 2C14.7873 2 15.0171 2.08971 15.1874 2.24967L16.5326 3.52784C16.8737 3.85188 16.8832 4.36495 16.5611 4.69799Z" stroke="#FCE5F2" stroke-width="1.5" stroke-miterlimit="10" stroke-linecap="round" stroke-linejoin="round"/>
<circle cx="18" cy="18" r="6" fill="#D7016E"/>
<path d="M22 18C22 20.208 20.208 22 18 22C15.792 22 14 20.208 14 18C14 15.792 15.792 14 18 14C20.208 14 22 15.792 22 18Z" stroke="#FCE5F2" stroke-linecap="round" stroke-linejoin="round"/>
<path d="M19 19L18.2402 18.2764C18.1078 18.1512 18 17.8501 18 17.6037V16" stroke="#FCE5F2" stroke-linecap="round" stroke-linejoin="round"/>
<path d="M8 10V15.0204C8 15.8018 8.87562 16.2609 9.54229 15.8409L10.4776 15.2353C10.6401 15.1303 10.8303 15.0743 11.0249 15.0743C11.2194 15.0743 11.4097 15.1303 11.5721 15.2353L12.4577 15.8214C12.6071 15.9191 12.7808 15.9753 12.9602 15.9838C13.1396 15.9922 13.3179 15.9528 13.4763 15.8696C13.6346 15.7863 13.7669 15.6625 13.8592 15.5112C13.9514 15.36 14.0001 15.187 14 15.0107V10H8Z" stroke="#FCE5F2" stroke-width="1.5" stroke-miterlimit="10" stroke-linecap="round" stroke-linejoin="round"/>
</svg>
