<svg width="24" height="24" viewBox="0 0 24 24" fill="none" xmlns="http://www.w3.org/2000/svg">
<path d="M18.3 5C18.9887 4.99996 19.6514 5.25578 20.1524 5.71512C20.6535 6.17446 20.9551 6.80259 20.9955 7.471L21 7.625V9.21488C20.998 9.4512 20.9325 9.6829 20.81 9.88703C20.6875 10.0912 20.5122 10.2606 20.3016 10.3786L20.2053 10.4294C19.9141 10.5683 19.667 10.7812 19.49 11.0455C19.313 11.3097 19.2128 11.6156 19.1998 11.9307C19.1869 12.2458 19.2618 12.5584 19.4167 12.8356C19.5715 13.1127 19.8004 13.344 20.0793 13.505L20.2053 13.5706C20.595 13.7579 20.9433 14.1446 20.9937 14.6556L21 14.7851V16.375C21 17.0446 20.7369 17.6888 20.2644 18.176C19.792 18.6631 19.1459 18.9563 18.4584 18.9956L18.3 19H5.7C5.01131 19 4.34864 18.7442 3.84757 18.2849C3.34649 17.8255 3.0449 17.1974 3.0045 16.529L3 16.375V14.7851C3 14.2549 3.3168 13.8419 3.6984 13.6214L3.7947 13.5706C4.08588 13.4317 4.33303 13.2188 4.51001 12.9545C4.687 12.6903 4.78725 12.3844 4.80016 12.0693C4.81307 11.7542 4.73816 11.4416 4.58335 11.1644C4.42854 10.8873 4.19959 10.656 3.9207 10.495L3.7947 10.4294C3.405 10.2421 3.0567 9.85538 3.0063 9.34438L3 9.21575V7.625C2.99996 6.95544 3.26309 6.31117 3.73556 5.82402C4.20802 5.33687 4.8541 5.04366 5.5416 5.00438L5.7 5H18.3ZM18.3 6.75H5.7C5.47956 6.75003 5.2668 6.82871 5.10207 6.97113C4.93733 7.11354 4.83209 7.30978 4.8063 7.52262L4.8 7.625V8.96812C5.33342 9.26703 5.77905 9.69397 6.09428 10.2081C6.40952 10.7223 6.58382 11.3065 6.60053 11.9048C6.61723 12.5032 6.47578 13.0957 6.18969 13.6257C5.90361 14.1557 5.48245 14.6055 4.9665 14.9321L4.8 15.0319V16.375C4.80003 16.5893 4.88096 16.7962 5.02744 16.9563C5.17393 17.1165 5.37577 17.2188 5.5947 17.2439L5.7 17.25H18.3C18.5204 17.25 18.7332 17.1713 18.8979 17.0289C19.0627 16.8865 19.1679 16.6902 19.1937 16.4774L19.2 16.375V15.0319C18.6666 14.733 18.221 14.306 17.9057 13.7919C17.5905 13.2777 17.4162 12.6935 17.3995 12.0952C17.3828 11.4968 17.5242 10.9043 17.8103 10.3743C18.0964 9.84428 18.5175 9.39447 19.0335 9.06787L19.2 8.96812V7.625C19.2 7.41068 19.119 7.20383 18.9726 7.04367C18.8261 6.88352 18.6242 6.7812 18.4053 6.75612L18.3 6.75ZM10.2 9.375C10.4204 9.37503 10.6332 9.45371 10.7979 9.59613C10.9627 9.73854 11.0679 9.93478 11.0937 10.1476L11.1 10.25V13.75C11.0997 13.973 11.0119 14.1875 10.8544 14.3497C10.697 14.5119 10.4817 14.6095 10.2527 14.6225C10.0237 14.6356 9.79826 14.5632 9.62235 14.42C9.44644 14.2769 9.33339 14.0738 9.3063 13.8524L9.3 13.75V10.25C9.3 10.0179 9.39482 9.79538 9.5636 9.63128C9.73239 9.46719 9.96131 9.375 10.2 9.375Z" fill="#FCE5F2"/>
</svg>
