<svg width="24" height="24" viewBox="0 0 24 24" fill="none" xmlns="http://www.w3.org/2000/svg">
<path d="M18.3 3C18.9887 2.99996 19.6514 3.25578 20.1524 3.71512C20.6535 4.17446 20.9551 4.80259 20.9955 5.471L21 5.625V7.21488C20.998 7.4512 20.9325 7.6829 20.81 7.88703C20.6875 8.09116 20.5122 8.26062 20.3016 8.37863L20.2053 8.42937C19.9141 8.56833 19.667 8.78119 19.49 9.04546C19.313 9.30973 19.2128 9.61559 19.1998 9.93069C19.1869 10.2458 19.2618 10.5584 19.4167 10.8356C19.5715 11.1127 19.8004 11.344 20.0793 11.505L20.2053 11.5706C20.595 11.7579 20.9433 12.1446 20.9937 12.6556L21 12.7851V14.375C21 15.0446 20.7369 15.6888 20.2644 16.176C19.792 16.6631 19.1459 16.9563 18.4584 16.9956L18.3 17H5.7C5.01131 17 4.34864 16.7442 3.84757 16.2849C3.34649 15.8255 3.0449 15.1974 3.0045 14.529L3 14.375V12.7851C3 12.2549 3.3168 11.8419 3.6984 11.6214L3.7947 11.5706C4.08588 11.4317 4.33303 11.2188 4.51001 10.9545C4.687 10.6903 4.78725 10.3844 4.80016 10.0693C4.81307 9.7542 4.73816 9.44156 4.58335 9.16444C4.42854 8.88733 4.19959 8.65603 3.9207 8.495L3.7947 8.42937C3.405 8.24213 3.0567 7.85538 3.0063 7.34438L3 7.21575V5.625C2.99996 4.95544 3.26309 4.31117 3.73556 3.82402C4.20802 3.33687 4.8541 3.04366 5.5416 3.00438L5.7 3H18.3ZM18.3 4.75H5.7C5.47956 4.75003 5.2668 4.82871 5.10207 4.97113C4.93733 5.11354 4.83209 5.30978 4.8063 5.52262L4.8 5.625V6.96812C5.33342 7.26703 5.77905 7.69397 6.09428 8.20812C6.40952 8.72228 6.58382 9.30646 6.60053 9.90481C6.61723 10.5032 6.47578 11.0957 6.18969 11.6257C5.90361 12.1557 5.48245 12.6055 4.9665 12.9321L4.8 13.0319V14.375C4.80003 14.5893 4.88096 14.7962 5.02744 14.9563C5.17393 15.1165 5.37577 15.2188 5.5947 15.2439L5.7 15.25H18.3C18.5204 15.25 18.7332 15.1713 18.8979 15.0289C19.0627 14.8865 19.1679 14.6902 19.1937 14.4774L19.2 14.375V13.0319C18.6666 12.733 18.221 12.306 17.9057 11.7919C17.5905 11.2777 17.4162 10.6935 17.3995 10.0952C17.3828 9.49684 17.5242 8.90433 17.8103 8.3743C18.0964 7.84428 18.5175 7.39447 19.0335 7.06787L19.2 6.96812V5.625C19.2 5.41068 19.119 5.20383 18.9726 5.04367C18.8261 4.88352 18.6242 4.7812 18.4053 4.75612L18.3 4.75ZM10.2 7.375C10.4204 7.37503 10.6332 7.45371 10.7979 7.59613C10.9627 7.73854 11.0679 7.93478 11.0937 8.14763L11.1 8.25V11.75C11.0997 11.973 11.0119 12.1875 10.8544 12.3497C10.697 12.5119 10.4817 12.6095 10.2527 12.6225C10.0237 12.6356 9.79826 12.5632 9.62235 12.42C9.44644 12.2769 9.33339 12.0738 9.3063 11.8524L9.3 11.75V8.25C9.3 8.01794 9.39482 7.79538 9.5636 7.63128C9.73239 7.46719 9.96131 7.375 10.2 7.375Z" fill="#FCE5F2"/>
<circle cx="18" cy="15" r="6" fill="#ED008C"/>
<path d="M22 15C22 17.208 20.208 19 18 19C15.792 19 14 17.208 14 15C14 12.792 15.792 11 18 11C20.208 11 22 12.792 22 15Z" stroke="#FCE5F2" stroke-linecap="round" stroke-linejoin="round"/>
<path d="M19 16L18.2402 15.2764C18.1078 15.1512 18 14.8501 18 14.6037V13" stroke="#FCE5F2" stroke-linecap="round" stroke-linejoin="round"/>
</svg>
