<svg width="24" height="24" viewBox="0 0 24 24" fill="none" xmlns="http://www.w3.org/2000/svg">
<path fill-rule="evenodd" clip-rule="evenodd" d="M2.14999 4.88928C2.14999 4.48436 2.48665 4.15039 2.90908 4.15039H6.0909C6.45528 4.15039 6.76501 4.40158 6.83527 4.74504L6.85633 4.83087L6.85771 4.83575C6.91177 5.02701 7.03019 5.30577 7.22506 5.57796C7.589 6.08633 8.09093 6.37261 8.81818 6.37261C9.54542 6.37261 10.0473 6.08633 10.4113 5.57796C10.6361 5.264 10.7602 4.9396 10.8 4.74957L10.8248 4.65694C10.9258 4.35955 11.2131 4.15039 11.5454 4.15039H21.0909C21.5133 4.15039 21.85 4.48436 21.85 4.88928V12.2043C21.3931 11.837 20.8825 11.5337 20.3318 11.3079V5.62817H12.1054L11.9671 5.91753C11.9107 6.02638 11.8466 6.1377 11.7742 6.25013L11.6558 6.42428C11.0249 7.30473 10.0779 7.85039 8.81818 7.85039C7.55774 7.85039 6.61042 7.30413 5.97948 6.42282C5.81575 6.19413 5.6874 5.96714 5.58866 5.75303L5.53234 5.62817H3.66818V18.3726H5.53234L5.58864 18.2478C5.66245 18.0877 5.75282 17.9205 5.86215 17.7507L5.98053 17.5765C6.61147 16.696 7.55844 16.1504 8.81818 16.1504C10.0786 16.1504 11.0259 16.6967 11.6569 17.578C11.764 17.7276 11.8559 17.8764 11.9344 18.0215C12.043 18.6713 12.2535 19.2866 12.5488 19.8504H11.5454C11.1811 19.8504 10.8713 19.5992 10.8011 19.2557L10.78 19.1699L10.7786 19.165C10.7246 18.9738 10.6062 18.695 10.4113 18.4228C10.0473 17.9145 9.54542 17.6282 8.81818 17.6282C8.09093 17.6282 7.589 17.9145 7.22506 18.4228C7.00029 18.7368 6.87611 19.0612 6.83633 19.2512L6.81153 19.3439C6.71058 19.6412 6.42321 19.8504 6.0909 19.8504H2.90908C2.48665 19.8504 2.14999 19.5164 2.14999 19.1115V4.88928ZM8.05908 9.77817C8.05908 9.37325 8.39575 9.03928 8.81818 9.03928C9.20864 9.03928 9.5264 9.32511 9.57169 9.68799L9.57727 9.78259V10.6671C9.57727 11.072 9.24061 11.4059 8.81818 11.4059C8.42771 11.4059 8.10995 11.1201 8.06467 10.7572L8.05908 10.6626V9.77817ZM12.3614 9.93366L12.4588 9.92817H17.4545C17.877 9.92817 18.2136 10.2621 18.2136 10.6671C18.2136 10.7315 18.2052 10.7939 18.1894 10.8533C18.1265 10.8513 18.0633 10.8504 18 10.8504C17.0876 10.8504 16.2212 11.0492 15.4421 11.4059H12.4545C12.0321 11.4059 11.6954 11.072 11.6954 10.6671C11.6954 10.2923 11.9835 9.97857 12.3614 9.93366ZM8.05908 13.3337C8.05908 12.9288 8.39575 12.5948 8.81818 12.5948C9.20864 12.5948 9.5264 12.8807 9.57169 13.2435L9.57727 13.3381V14.2226C9.57727 14.6275 9.24061 14.9615 8.81818 14.9615C8.42771 14.9615 8.10995 14.6757 8.06467 14.3128L8.05908 14.2182V13.3337ZM12.3614 12.6003L12.4588 12.5948H13.7089C13.2658 13.0264 12.8876 13.5244 12.5903 14.0726H12.4545C12.0321 14.0726 11.6954 13.7386 11.6954 13.3337C11.6954 12.959 11.9835 12.6452 12.3614 12.6003Z" fill="#ED008C"/>
<path fill-rule="evenodd" clip-rule="evenodd" d="M18 13.5C16.0681 13.5 14.5 15.0681 14.5 17C14.5 18.9319 16.0681 20.5 18 20.5C19.9319 20.5 21.5 18.9319 21.5 17C21.5 15.0681 19.9319 13.5 18 13.5ZM13.5 17C13.5 14.5159 15.5159 12.5 18 12.5C20.4841 12.5 22.5 14.5159 22.5 17C22.5 19.4841 20.4841 21.5 18 21.5C15.5159 21.5 13.5 19.4841 13.5 17Z" fill="#ED008C"/>
<path fill-rule="evenodd" clip-rule="evenodd" d="M18 14.5C18.2761 14.5 18.5 14.7239 18.5 15V16.6037C18.5 16.6604 18.5138 16.7402 18.5413 16.8172C18.5545 16.854 18.5682 16.8831 18.5797 16.9029C18.5845 16.9113 18.588 16.9164 18.5898 16.9189L19.3448 17.6379C19.5448 17.8284 19.5525 18.1449 19.3621 18.3448C19.1716 18.5448 18.8551 18.5525 18.6552 18.3621L17.8966 17.6397C17.8964 17.6394 17.8961 17.6392 17.8959 17.639C17.7491 17.4998 17.6556 17.3105 17.5996 17.1538C17.5402 16.9873 17.5 16.7933 17.5 16.6037V15C17.5 14.7239 17.7239 14.5 18 14.5Z" fill="#ED008C"/>
</svg>
