<svg width="24" height="24" viewBox="0 0 24 24" fill="none" xmlns="http://www.w3.org/2000/svg">
<path d="M24 18C24 19.0609 23.5786 20.0783 22.8284 20.8284C22.0783 21.5786 21.0609 22 20 22H18V20H20C20.5304 20 21.0391 19.7893 21.4142 19.4142C21.7893 19.0391 22 18.5304 22 18C22 17.4696 21.7893 16.9609 21.4142 16.5858C21.0391 16.2107 20.5304 16 20 16H18V14H20C21.0609 14 22.0783 14.4214 22.8284 15.1716C23.5786 15.9217 24 16.9391 24 18ZM10 18C10 16.9391 10.4214 15.9217 11.1716 15.1716C11.9217 14.4214 12.9391 14 14 14H16V16H14C13.4696 16 12.9609 16.2107 12.5858 16.5858C12.2107 16.9609 12 17.4696 12 18C12 18.5304 12.2107 19.0391 12.5858 19.4142C12.9609 19.7893 13.4696 20 14 20H16V22H14C12.9391 22 11.9217 21.5786 11.1716 20.8284C10.4214 20.0783 10 19.0609 10 18Z" fill="#FCE5F2"/>
<path d="M15.5333 17.2667H19V19H15.5333V17.2667ZM11.2 6C10.6858 6 10.1831 6.15249 9.75552 6.43818C9.32795 6.72387 8.9947 7.12994 8.79791 7.60502C8.60113 8.08011 8.54964 8.60288 8.64996 9.10723C8.75028 9.61159 8.99791 10.0749 9.36152 10.4385C9.72514 10.8021 10.1884 11.0497 10.6928 11.15C11.1971 11.2504 11.7199 11.1989 12.195 11.0021C12.6701 10.8053 13.0761 10.4721 13.3618 10.0445C13.6475 9.61691 13.8 9.11423 13.8 8.6C13.7979 7.91107 13.5234 7.25094 13.0362 6.7638C12.5491 6.27665 11.8889 6.00206 11.2 6ZM11.2 9.46667C11.0286 9.46667 10.861 9.41584 10.7185 9.32061C10.576 9.22538 10.4649 9.09002 10.3993 8.93166C10.3337 8.7733 10.3165 8.59904 10.35 8.43092C10.3834 8.2628 10.466 8.10838 10.5872 7.98717C10.7084 7.86597 10.8628 7.78343 11.0309 7.74999C11.199 7.71655 11.3733 7.73371 11.5317 7.7993C11.69 7.8649 11.8254 7.97598 11.9206 8.11851C12.0158 8.26103 12.0667 8.42859 12.0667 8.6C12.066 8.82964 11.9745 9.04969 11.8121 9.21207C11.6497 9.37445 11.4296 9.46598 11.2 9.46667ZM8.002 14.6667C8.95631 14.0505 10.0642 13.7143 11.2 13.696C11.4258 13.6989 11.6511 13.7174 11.8743 13.7515C12.7075 13.217 13.6767 12.9331 14.6667 12.9333H14.8868C13.7512 12.3257 12.4877 11.996 11.2 11.9713C9.44067 11.9713 6 12.8987 6 15.074V16.4H9.76913C9.99569 15.7605 10.3455 15.1716 10.7987 14.6667H8.002Z" fill="#FCE5F2"/>
<path d="M18.1111 2.90017H14.1633C13.9699 2.34485 13.6098 1.86369 13.1326 1.52327C12.6555 1.18286 12.085 1 11.5 1C10.915 1 10.3445 1.18286 9.86737 1.52327C9.39023 1.86369 9.03005 2.34485 8.83667 2.90017H4.88889C4.38838 2.90168 3.90881 3.10234 3.55489 3.45833C3.20098 3.81432 3.00149 4.29671 3 4.80015L3 18.1C3.00149 18.6035 3.20098 19.0859 3.55489 19.4418C3.90881 19.7978 4.38838 19.9985 4.88889 20H9.74428C9.56618 19.3793 9.56618 18.7207 9.74428 18.1H4.88889V4.80015H18.1111V13.3501H20V4.80015C19.9985 4.29671 19.799 3.81432 19.4451 3.45833C19.0912 3.10234 18.6116 2.90168 18.1111 2.90017ZM11.5 4.08766C11.3126 4.08617 11.1333 4.01063 11.0008 3.87733C10.8683 3.74403 10.7931 3.56367 10.7917 3.37517C10.7917 3.1862 10.8663 3.00498 10.9991 2.87136C11.132 2.73774 11.3121 2.66268 11.5 2.66268C11.6879 2.66268 11.868 2.73774 12.0009 2.87136C12.1337 3.00498 12.2083 3.1862 12.2083 3.37517C12.2069 3.56367 12.1317 3.74403 11.9992 3.87733C11.8667 4.01063 11.6874 4.08617 11.5 4.08766Z" fill="#FCE5F2"/>
</svg>
